<svg width="447" height="866" viewBox="0 0 447 866" fill="none" xmlns="http://www.w3.org/2000/svg">
<g clip-path="url(#clip0_33_248)">
<path d="M245.557 -601.58L224.664 -872.01C224.57 -873.24 222.794 -873.25 222.687 -872.03L198.943 -601.58C198.939 -601.53 198.93 -601.48 198.918 -601.43L192.513 -575.1C192.496 -575.03 192.487 -574.97 192.485 -574.9L185.544 -371.5V-174.5L189.512 86.9998V358L193.975 614.411C193.976 614.47 193.982 614.529 193.993 614.587L200.921 650L221.263 862.676C221.378 863.881 223.122 863.881 223.238 862.676L243.579 650L251 614.593C251.013 614.531 251.02 614.468 251.022 614.405L252.258 550.5L252.664 529.5L255.98 358L259.452 86.9998V-174.5L257.468 -371.5L252.015 -574.89C252.013 -574.96 252.003 -575.03 251.987 -575.1L245.583 -601.42C245.57 -601.47 245.561 -601.53 245.557 -601.58Z" fill="black" stroke="black"/>
</g>
<g clip-path="url(#clip1_33_248)">
<path d="M244.881 275.419L224.84 4.98536C224.749 3.76204 223.046 3.75257 222.943 4.97482L200.168 275.424C200.163 275.475 200.156 275.525 200.144 275.574L193.999 301.9C193.984 301.966 193.975 302.035 193.972 302.103L187.315 505.5V702.5L191.121 964V1235L195.402 1491.41C195.403 1491.47 195.409 1491.53 195.42 1491.59L202.065 1527L221.577 1739.68C221.688 1740.88 223.361 1740.88 223.471 1739.68L242.984 1527L250.102 1491.59C250.115 1491.53 250.122 1491.47 250.123 1491.41L251.308 1427.5L251.698 1406.5L254.879 1235L258.21 964V702.5L256.306 505.5L251.075 302.107C251.074 302.036 251.064 301.965 251.048 301.896L244.906 275.579C244.893 275.526 244.885 275.473 244.881 275.419Z" fill="black" stroke="black"/>
</g>
<path d="M193.5 303V614H251.5V303H193.5Z" fill="black"/>
<path d="M289 506.5L249 516.5V525.5L294.5 510.5V506.5L249 466V471L289 506.5Z" fill="black" stroke="black"/>
<path d="M153.5 506.5L193.5 516.5V525.5L148 510.5V506.5L193.5 466V471L153.5 506.5Z" fill="black" stroke="black"/>
<path d="M38 652.402L34.3 651L32.45 652.402L31.9875 652.87L31.0625 653.337L30.1375 653.804L26.9 655.674L23.6625 657.543L20.425 659.413L17.1875 661.75L11.6375 666.424L7.9375 669.696L5.625 672.033L4.7 673.435L3.3125 675.304L2.3875 677.174L1 679.511L12.5625 694L15.3375 693.065L19.9625 691.663L23.2 690.261L25.5125 688.859L27.825 686.989L28.75 686.054L29.675 685.12L31.0625 683.25L31.9875 681.848L35.6875 676.707L36.15 675.772L36.6125 674.837L37.075 673.902V673.435L36.6125 672.033L36.15 669.696L35.6875 667.359L35.225 664.554V662.217V659.413L35.6875 657.076L36.15 654.739L38 652.402Z" fill="black" stroke="black"/>
<path d="M34 651L194 455V462.5L37.5 652.5L34 651Z" fill="black" stroke="black"/>
<path d="M408.5 652.402L412.2 651L414.05 652.402L414.512 652.87L415.438 653.337L416.362 653.804L419.6 655.674L422.837 657.543L426.075 659.413L429.312 661.75L434.863 666.424L438.562 669.696L440.875 672.033L441.8 673.435L443.188 675.304L444.112 677.174L445.5 679.511L433.938 694L431.162 693.065L426.538 691.663L423.3 690.261L420.987 688.859L418.675 686.989L417.75 686.054L416.825 685.12L415.438 683.25L414.512 681.848L410.812 676.707L410.35 675.772L409.888 674.837L409.425 673.902V673.435L409.888 672.033L410.35 669.696L410.812 667.359L411.275 664.554V662.217V659.413L410.812 657.076L410.35 654.739L408.5 652.402Z" fill="black" stroke="black"/>
<path d="M412 651L252 455V462.5L408.5 652.5L412 651Z" fill="black" stroke="black"/>
<path d="M290 368.5L250 378.5V387.5L295.5 372.5V368.5L250 328V333L290 368.5Z" fill="black" stroke="black"/>
<path d="M153.5 368.5L193.5 378.5V387.5L148 372.5V368.5L193.5 328V333L153.5 368.5Z" fill="black" stroke="black"/>
<path d="M38 516.402L34.3 515L32.45 516.402L31.9875 516.87L31.0625 517.337L30.1375 517.804L26.9 519.674L23.6625 521.543L20.425 523.413L17.1875 525.75L11.6375 530.424L7.9375 533.696L5.625 536.033L4.7 537.435L3.3125 539.304L2.3875 541.174L1 543.511L12.5625 558L15.3375 557.065L19.9625 555.663L23.2 554.261L25.5125 552.859L27.825 550.989L28.75 550.054L29.675 549.12L31.0625 547.25L31.9875 545.848L35.6875 540.707L36.15 539.772L36.6125 538.837L37.075 537.902V537.435L36.6125 536.033L36.15 533.696L35.6875 531.359L35.225 528.554V526.217V523.413L35.6875 521.076L36.15 518.739L38 516.402Z" fill="black" stroke="black"/>
<path d="M34 515L194 319V326.5L37.5 516.5L34 515Z" fill="black" stroke="black"/>
<path d="M408.5 516.402L412.2 515L414.05 516.402L414.512 516.87L415.438 517.337L416.362 517.804L419.6 519.674L422.837 521.543L426.075 523.413L429.312 525.75L434.863 530.424L438.562 533.696L440.875 536.033L441.8 537.435L443.188 539.304L444.112 541.174L445.5 543.511L433.938 558L431.162 557.065L426.538 555.663L423.3 554.261L420.987 552.859L418.675 550.989L417.75 550.054L416.825 549.12L415.438 547.25L414.512 545.848L410.812 540.707L410.35 539.772L409.888 538.837L409.425 537.902V537.435L409.888 536.033L410.35 533.696L410.812 531.359L411.275 528.554V526.217V523.413L410.812 521.076L410.35 518.739L408.5 516.402Z" fill="black" stroke="black"/>
<path d="M412 515L252 319V326.5L408.5 516.5L412 515Z" fill="black" stroke="black"/>
<defs>
<clipPath id="clip0_33_248">
<rect width="62.5" height="252" fill="white" transform="translate(191 614)"/>
</clipPath>
<clipPath id="clip1_33_248">
<rect width="59" height="303" fill="white" transform="translate(193.5)"/>
</clipPath>
</defs>
</svg>
