<svg width="722" height="1757" viewBox="0 0 722 1757" fill="none" xmlns="http://www.w3.org/2000/svg">
<path d="M338.51 281.868L359.038 18.7431C359.181 16.9019 361.878 16.8972 362.028 18.7378L383.489 281.871C383.496 281.957 383.511 282.042 383.533 282.125L390.452 308.815C390.484 308.938 390.5 309.064 390.5 309.191V1497.86C390.5 1497.95 390.491 1498.05 390.472 1498.14L383.5 1534L361.091 1742.22C360.897 1744.02 358.276 1744 358.106 1742.2L338.5 1534L331.528 1498.14C331.509 1498.05 331.5 1497.95 331.5 1497.86V309.191C331.5 309.064 331.516 308.938 331.548 308.815L338.467 282.128C338.489 282.043 338.503 281.956 338.51 281.868Z" fill="black" stroke="black"/>
<path d="M273.73 1371.18L333.636 1419.21C333.867 1419.39 334.004 1419.67 334.011 1419.97L334.443 1439.01C334.464 1439.91 333.374 1440.37 332.736 1439.74L269.696 1376.7C269.568 1376.57 269.477 1376.41 269.433 1376.23L268.542 1372.67C268.514 1372.56 268.467 1372.45 268.404 1372.36L267.792 1371.44C267.609 1371.16 267.573 1370.82 267.695 1370.51L268.5 1368.5L269.428 1365.25C269.475 1365.09 269.564 1364.94 269.685 1364.82L330.296 1304.69C330.927 1304.06 332 1304.51 332 1305.4V1306.58C332 1306.85 331.893 1307.11 331.704 1307.29L272.441 1366.06C272.171 1366.33 272.076 1366.73 272.196 1367.09L273.407 1370.72C273.468 1370.9 273.58 1371.06 273.73 1371.18Z" fill="black" stroke="black"/>
<path d="M66.1491 1471.88L65.3095 1471.6C65.1084 1471.54 64.8912 1471.53 64.6892 1471.6L18.0738 1486.48C18.0247 1486.49 17.9768 1486.51 17.9307 1486.53L14 1488.5L11.5 1490L4.5 1495.5L2.56771 1497.05C2.22923 1497.32 2.10375 1497.77 2.25693 1498.18L10.2557 1519.35C10.4027 1519.74 10.7752 1520 11.1912 1520H14H22L26.3947 1519.51C26.4647 1519.5 26.5337 1519.49 26.6005 1519.47L31 1518L38.5 1515L49 1509L68.0049 1496.33C68.31 1496.13 68.4793 1495.77 68.4461 1495.41L68 1490.5V1485.57C68 1485.52 68.0034 1485.48 68.01 1485.43L68.5 1482L69.4242 1477.38C69.473 1477.14 69.4291 1476.88 69.3011 1476.67L66.6903 1472.32C66.5675 1472.11 66.3755 1471.96 66.1491 1471.88Z" fill="black" stroke="black"/>
<path d="M284.565 1369.73L331.178 1347.63C331.814 1347.33 332.554 1347.76 332.604 1348.46L332.949 1353.28C332.979 1353.71 332.732 1354.11 332.334 1354.28L286.617 1373.24C286.243 1373.4 286 1373.76 286 1374.17V1375.34C286 1375.74 285.762 1376.1 285.394 1376.26L261.926 1386.32C261.656 1386.43 261.348 1386.42 261.085 1386.29L259.934 1385.72C259.66 1385.58 259.338 1385.58 259.061 1385.71L69.7825 1474.87C69.5985 1474.95 69.3925 1474.98 69.192 1474.95L67.3356 1474.64C66.8534 1474.56 66.5 1474.14 66.5 1473.65V1472.63C66.5 1472.25 66.723 1471.89 67.0727 1471.73L257.427 1381.77C257.777 1381.61 258 1381.25 258 1380.87V1379.64C258 1379.25 258.225 1378.89 258.576 1378.73L280.937 1368.26C281.282 1368.1 281.688 1368.15 281.986 1368.39L283.512 1369.61C283.81 1369.85 284.219 1369.9 284.565 1369.73Z" fill="black" stroke="black"/>
<path d="M447.27 1229.18L387.364 1277.21C387.133 1277.39 386.996 1277.67 386.989 1277.97L386.557 1297.01C386.536 1297.91 387.626 1298.37 388.264 1297.74L451.304 1234.7C451.432 1234.57 451.523 1234.41 451.567 1234.23L452.458 1230.67C452.486 1230.56 452.533 1230.45 452.596 1230.36L453.208 1229.44C453.391 1229.16 453.427 1228.82 453.305 1228.51L452.5 1226.5L451.572 1223.25C451.525 1223.09 451.436 1222.94 451.315 1222.82L390.704 1162.69C390.073 1162.06 389 1162.51 389 1163.4V1164.58C389 1164.85 389.107 1165.11 389.296 1165.29L448.559 1224.06C448.829 1224.33 448.924 1224.73 448.804 1225.09L447.593 1228.72C447.532 1228.9 447.42 1229.06 447.27 1229.18Z" fill="black" stroke="black"/>
<path d="M656.851 1330.88L657.691 1330.6C657.892 1330.54 658.109 1330.53 658.311 1330.6L704.926 1345.48C704.975 1345.49 705.023 1345.51 705.069 1345.53L709 1347.5L711.5 1349L718.5 1354.5L720.432 1356.05C720.771 1356.32 720.896 1356.77 720.743 1357.18L712.744 1378.35C712.597 1378.74 712.225 1379 711.809 1379H709H701L696.605 1378.51C696.535 1378.5 696.466 1378.49 696.399 1378.47L692 1377L684.5 1374L674 1368L654.995 1355.33C654.69 1355.13 654.521 1354.77 654.554 1354.41L655 1349.5V1344.57C655 1344.52 654.997 1344.48 654.99 1344.43L654.5 1341L653.576 1336.38C653.527 1336.14 653.571 1335.88 653.699 1335.67L656.31 1331.32C656.432 1331.11 656.624 1330.96 656.851 1330.88Z" fill="black" stroke="black"/>
<path d="M438.435 1228.73L391.822 1206.63C391.186 1206.33 390.446 1206.76 390.396 1207.46L390.051 1212.28C390.021 1212.71 390.268 1213.11 390.666 1213.28L436.383 1232.24C436.757 1232.4 437 1232.76 437 1233.17V1234.34C437 1234.74 437.238 1235.1 437.606 1235.26L461.074 1245.32C461.344 1245.43 461.652 1245.42 461.915 1245.29L463.066 1244.72C463.34 1244.58 463.662 1244.58 463.939 1244.71L653.217 1333.87C653.401 1333.95 653.607 1333.98 653.808 1333.95L655.664 1333.64C656.147 1333.56 656.5 1333.14 656.5 1332.65V1331.63C656.5 1331.25 656.277 1330.89 655.927 1330.73L465.573 1240.77C465.223 1240.61 465 1240.25 465 1239.87V1238.64C465 1238.25 464.775 1237.89 464.424 1237.73L442.063 1227.26C441.718 1227.1 441.312 1227.15 441.014 1227.39L439.488 1228.61C439.19 1228.85 438.781 1228.9 438.435 1228.73Z" fill="black" stroke="black"/>
<path d="M273.23 1083.68L333.136 1131.71C333.367 1131.89 333.504 1132.17 333.511 1132.47L333.943 1151.51C333.964 1152.41 332.874 1152.87 332.236 1152.24L269.196 1089.2C269.068 1089.07 268.977 1088.91 268.933 1088.73L268.042 1085.17C268.014 1085.06 267.967 1084.95 267.904 1084.86L267.292 1083.94C267.109 1083.66 267.073 1083.32 267.195 1083.01L268 1081L268.928 1077.75C268.975 1077.59 269.064 1077.44 269.185 1077.32L329.796 1017.19C330.427 1016.56 331.5 1017.01 331.5 1017.9V1019.08C331.5 1019.35 331.393 1019.61 331.204 1019.79L271.941 1078.56C271.671 1078.83 271.576 1079.23 271.696 1079.59L272.907 1083.22C272.968 1083.4 273.08 1083.56 273.23 1083.68Z" fill="black" stroke="black"/>
<path d="M65.1491 1184.38L64.3095 1184.1C64.1084 1184.04 63.8912 1184.03 63.6892 1184.1L17.0738 1198.98C17.0247 1198.99 16.9768 1199.01 16.9307 1199.03L13 1201L10.5 1202.5L3.5 1208L1.56771 1209.55C1.22923 1209.82 1.10375 1210.27 1.25693 1210.68L9.25573 1231.85C9.40273 1232.24 9.77525 1232.5 10.1912 1232.5H13H21L25.3947 1232.01C25.4647 1232 25.5337 1231.99 25.6005 1231.97L30 1230.5L37.5 1227.5L48 1221.5L67.0049 1208.83C67.31 1208.63 67.4793 1208.27 67.4461 1207.91L67 1203V1198.07C67 1198.02 67.0034 1197.98 67.01 1197.93L67.5 1194.5L68.4242 1189.88C68.473 1189.64 68.4291 1189.38 68.3011 1189.17L65.6903 1184.82C65.5675 1184.61 65.3755 1184.46 65.1491 1184.38Z" fill="black" stroke="black"/>
<path d="M283.565 1082.23L330.178 1060.13C330.814 1059.83 331.554 1060.26 331.604 1060.96L331.949 1065.78C331.979 1066.21 331.732 1066.61 331.334 1066.78L285.617 1085.74C285.243 1085.9 285 1086.26 285 1086.67V1087.84C285 1088.24 284.762 1088.6 284.394 1088.76L260.926 1098.82C260.656 1098.93 260.348 1098.92 260.085 1098.79L258.934 1098.22C258.66 1098.08 258.338 1098.08 258.061 1098.21L68.7825 1187.37C68.5985 1187.45 68.3925 1187.48 68.192 1187.45L66.3356 1187.14C65.8534 1187.06 65.5 1186.64 65.5 1186.15V1185.13C65.5 1184.75 65.723 1184.39 66.0727 1184.23L256.427 1094.27C256.777 1094.11 257 1093.75 257 1093.37V1092.14C257 1091.75 257.225 1091.39 257.576 1091.23L279.937 1080.76C280.282 1080.6 280.688 1080.65 280.986 1080.89L282.512 1082.11C282.81 1082.35 283.219 1082.4 283.565 1082.23Z" fill="black" stroke="black"/>
<path d="M446.77 941.684L386.864 989.708C386.633 989.893 386.496 990.171 386.489 990.466L386.057 1009.51C386.036 1010.41 387.126 1010.87 387.764 1010.24L450.804 947.196C450.932 947.068 451.023 946.907 451.067 946.731L451.958 943.168C451.986 943.057 452.033 942.951 452.096 942.856L452.708 941.938C452.891 941.664 452.927 941.317 452.805 941.012L452 939L451.072 935.751C451.025 935.587 450.936 935.437 450.815 935.316L390.204 875.191C389.573 874.565 388.5 875.012 388.5 875.901V877.083C388.5 877.35 388.607 877.606 388.796 877.793L448.059 936.563C448.329 936.831 448.424 937.228 448.304 937.589L447.093 941.22C447.032 941.403 446.92 941.564 446.77 941.684Z" fill="black" stroke="black"/>
<path d="M656.851 1043.38L657.691 1043.1C657.892 1043.04 658.109 1043.03 658.311 1043.1L704.926 1057.98C704.975 1057.99 705.023 1058.01 705.069 1058.03L709 1060L711.5 1061.5L718.5 1067L720.432 1068.55C720.771 1068.82 720.896 1069.27 720.743 1069.68L712.744 1090.85C712.597 1091.24 712.225 1091.5 711.809 1091.5H709H701L696.605 1091.01C696.535 1091 696.466 1090.99 696.399 1090.97L692 1089.5L684.5 1086.5L674 1080.5L654.995 1067.83C654.69 1067.63 654.521 1067.27 654.554 1066.91L655 1062V1057.07C655 1057.02 654.997 1056.98 654.99 1056.93L654.5 1053.5L653.576 1048.88C653.527 1048.64 653.571 1048.38 653.699 1048.17L656.31 1043.82C656.432 1043.61 656.624 1043.46 656.851 1043.38Z" fill="black" stroke="black"/>
<path d="M438.435 941.232L391.822 919.127C391.186 918.825 390.446 919.257 390.396 919.959L390.051 924.781C390.021 925.21 390.268 925.611 390.666 925.776L436.383 944.744C436.757 944.899 437 945.264 437 945.668V946.841C437 947.241 437.238 947.602 437.606 947.76L461.074 957.817C461.344 957.933 461.652 957.924 461.915 957.793L463.066 957.217C463.34 957.08 463.662 957.076 463.939 957.207L653.217 1046.37C653.401 1046.45 653.607 1046.48 653.808 1046.45L655.664 1046.14C656.147 1046.06 656.5 1045.64 656.5 1045.15V1044.13C656.5 1043.75 656.277 1043.39 655.927 1043.23L465.573 953.271C465.223 953.105 465 952.753 465 952.367V951.136C465 950.748 464.775 950.395 464.424 950.23L442.063 939.764C441.718 939.602 441.312 939.651 441.014 939.888L439.488 941.109C439.19 941.348 438.781 941.396 438.435 941.232Z" fill="black" stroke="black"/>
<path d="M276.23 795.184L336.136 843.208C336.367 843.393 336.504 843.671 336.511 843.966L336.943 863.007C336.964 863.908 335.874 864.374 335.236 863.736L272.196 800.696C272.068 800.568 271.977 800.407 271.933 800.231L271.042 796.668C271.014 796.557 270.967 796.451 270.904 796.356L270.292 795.438C270.109 795.164 270.073 794.817 270.195 794.512L271 792.5L271.928 789.251C271.975 789.087 272.064 788.937 272.185 788.816L332.796 728.691C333.427 728.065 334.5 728.512 334.5 729.401V730.583C334.5 730.85 334.393 731.106 334.204 731.293L274.941 790.063C274.671 790.331 274.576 790.728 274.696 791.089L275.907 794.72C275.968 794.903 276.08 795.064 276.23 795.184Z" fill="black" stroke="black"/>
<path d="M65.1491 897.383L64.3095 897.103C64.1084 897.036 63.8912 897.035 63.6892 897.099L17.0738 911.976C17.0247 911.992 16.9768 912.012 16.9307 912.035L13 914L10.5 915.5L3.5 921L1.56771 922.546C1.22923 922.817 1.10375 923.275 1.25693 923.68L9.25573 944.853C9.40273 945.243 9.77525 945.5 10.1912 945.5H13H21L25.3947 945.012C25.4647 945.004 25.5337 944.989 25.6005 944.966L30 943.5L37.5 940.5L48 934.5L67.0049 921.83C67.31 921.627 67.4793 921.273 67.4461 920.907L67 916V911.071C67 911.024 67.0034 910.976 67.01 910.93L67.5 907.5L68.4242 902.879C68.473 902.635 68.4291 902.382 68.3011 902.168L65.6903 897.817C65.5675 897.613 65.3755 897.459 65.1491 897.383Z" fill="black" stroke="black"/>
<path d="M283.565 795.232L330.178 773.127C330.814 772.825 331.554 773.257 331.604 773.959L331.949 778.781C331.979 779.21 331.732 779.611 331.334 779.776L285.617 798.744C285.243 798.899 285 799.264 285 799.668V800.841C285 801.241 284.762 801.602 284.394 801.76L260.926 811.817C260.656 811.933 260.348 811.924 260.085 811.793L258.934 811.217C258.66 811.08 258.338 811.076 258.061 811.207L68.7825 900.367C68.5985 900.454 68.3925 900.482 68.192 900.449L66.3356 900.139C65.8534 900.059 65.5 899.642 65.5 899.153V898.133C65.5 897.747 65.723 897.395 66.0727 897.229L256.427 807.271C256.777 807.105 257 806.753 257 806.367V805.136C257 804.748 257.225 804.395 257.576 804.23L279.937 793.764C280.282 793.602 280.688 793.651 280.986 793.888L282.512 795.109C282.81 795.348 283.219 795.396 283.565 795.232Z" fill="black" stroke="black"/>
<path d="M446.77 653.184L386.864 701.208C386.633 701.393 386.496 701.671 386.489 701.966L386.057 721.007C386.036 721.908 387.126 722.374 387.764 721.736L450.804 658.696C450.932 658.568 451.023 658.407 451.067 658.231L451.958 654.668C451.986 654.557 452.033 654.451 452.096 654.356L452.708 653.438C452.891 653.164 452.927 652.817 452.805 652.512L452 650.5L451.072 647.251C451.025 647.087 450.936 646.937 450.815 646.816L390.204 586.691C389.573 586.065 388.5 586.512 388.5 587.401V588.583C388.5 588.85 388.607 589.106 388.796 589.293L448.059 648.063C448.329 648.331 448.424 648.728 448.304 649.089L447.093 652.72C447.032 652.903 446.92 653.064 446.77 653.184Z" fill="black" stroke="black"/>
<path d="M656.851 755.383L657.691 755.103C657.892 755.036 658.109 755.035 658.311 755.099L704.926 769.976C704.975 769.992 705.023 770.012 705.069 770.035L709 772L711.5 773.5L718.5 779L720.432 780.546C720.771 780.817 720.896 781.275 720.743 781.68L712.744 802.853C712.597 803.243 712.225 803.5 711.809 803.5H709H701L696.605 803.012C696.535 803.004 696.466 802.989 696.399 802.966L692 801.5L684.5 798.5L674 792.5L654.995 779.83C654.69 779.627 654.521 779.273 654.554 778.907L655 774V769.071C655 769.024 654.997 768.976 654.99 768.93L654.5 765.5L653.576 760.879C653.527 760.635 653.571 760.382 653.699 760.168L656.31 755.817C656.432 755.613 656.624 755.459 656.851 755.383Z" fill="black" stroke="black"/>
<path d="M438.435 653.232L391.822 631.127C391.186 630.825 390.446 631.257 390.396 631.959L390.051 636.781C390.021 637.21 390.268 637.611 390.666 637.776L436.383 656.744C436.757 656.899 437 657.264 437 657.668V658.841C437 659.241 437.238 659.602 437.606 659.76L461.074 669.817C461.344 669.933 461.652 669.924 461.915 669.793L463.066 669.217C463.34 669.08 463.662 669.076 463.939 669.207L653.217 758.367C653.401 758.454 653.607 758.482 653.808 758.449L655.664 758.139C656.147 758.059 656.5 757.642 656.5 757.153V756.133C656.5 755.747 656.277 755.395 655.927 755.229L465.573 665.271C465.223 665.105 465 664.753 465 664.367V663.136C465 662.748 464.775 662.395 464.424 662.23L442.063 651.764C441.718 651.602 441.312 651.651 441.014 651.888L439.488 653.109C439.19 653.348 438.781 653.396 438.435 653.232Z" fill="black" stroke="black"/>
<path d="M273.73 512.684L333.636 560.708C333.867 560.893 334.004 561.171 334.011 561.466L334.443 580.507C334.464 581.408 333.374 581.874 332.736 581.236L269.696 518.196C269.568 518.068 269.477 517.907 269.433 517.731L268.542 514.168C268.514 514.057 268.467 513.951 268.404 513.856L267.792 512.938C267.609 512.664 267.573 512.317 267.695 512.012L268.5 510L269.428 506.751C269.475 506.587 269.564 506.437 269.685 506.316L330.296 446.191C330.927 445.565 332 446.012 332 446.901V448.083C332 448.35 331.893 448.606 331.704 448.793L272.441 507.563C272.171 507.831 272.076 508.228 272.196 508.589L273.407 512.22C273.468 512.403 273.58 512.564 273.73 512.684Z" fill="black" stroke="black"/>
<path d="M65.1491 613.883L64.3095 613.603C64.1084 613.536 63.8912 613.535 63.6892 613.599L17.0738 628.476C17.0247 628.492 16.9768 628.512 16.9307 628.535L13 630.5L10.5 632L3.5 637.5L1.56771 639.046C1.22923 639.317 1.10375 639.775 1.25693 640.18L9.25573 661.353C9.40273 661.743 9.77525 662 10.1912 662H13H21L25.3947 661.512C25.4647 661.504 25.5337 661.489 25.6005 661.466L30 660L37.5 657L48 651L67.0049 638.33C67.31 638.127 67.4793 637.773 67.4461 637.407L67 632.5V627.571C67 627.524 67.0034 627.476 67.01 627.43L67.5 624L68.4242 619.379C68.473 619.135 68.4291 618.882 68.3011 618.668L65.6903 614.317C65.5675 614.113 65.3755 613.959 65.1491 613.883Z" fill="black" stroke="black"/>
<path d="M283.565 511.732L330.178 489.627C330.814 489.325 331.554 489.757 331.604 490.459L331.949 495.281C331.979 495.71 331.732 496.111 331.334 496.276L285.617 515.244C285.243 515.399 285 515.764 285 516.168V517.341C285 517.741 284.762 518.102 284.394 518.26L260.926 528.317C260.656 528.433 260.348 528.424 260.085 528.293L258.934 527.717C258.66 527.58 258.338 527.576 258.061 527.707L68.7825 616.867C68.5985 616.954 68.3925 616.982 68.192 616.949L66.3356 616.639C65.8534 616.559 65.5 616.142 65.5 615.653V614.633C65.5 614.247 65.723 613.895 66.0727 613.729L256.427 523.771C256.777 523.605 257 523.253 257 522.867V521.636C257 521.248 257.225 520.895 257.576 520.73L279.937 510.264C280.282 510.102 280.688 510.151 280.986 510.388L282.512 511.609C282.81 511.848 283.219 511.896 283.565 511.732Z" fill="black" stroke="black"/>
<path d="M444.27 370.684L384.364 418.708C384.133 418.893 383.996 419.171 383.989 419.466L383.557 438.507C383.536 439.408 384.626 439.874 385.264 439.236L448.304 376.196C448.432 376.068 448.523 375.907 448.567 375.731L449.458 372.168C449.486 372.057 449.533 371.951 449.596 371.856L450.208 370.938C450.391 370.664 450.427 370.317 450.305 370.012L449.5 368L448.572 364.751C448.525 364.587 448.436 364.437 448.315 364.316L387.704 304.191C387.073 303.565 386 304.012 386 304.901V306.083C386 306.35 386.107 306.606 386.296 306.793L445.559 365.563C445.829 365.831 445.924 366.228 445.804 366.589L444.593 370.22C444.532 370.403 444.42 370.564 444.27 370.684Z" fill="black" stroke="black"/>
<path d="M656.851 471.883L657.691 471.603C657.892 471.536 658.109 471.535 658.311 471.599L704.926 486.476C704.975 486.492 705.023 486.512 705.069 486.535L709 488.5L711.5 490L718.5 495.5L720.432 497.046C720.771 497.317 720.896 497.775 720.743 498.18L712.744 519.353C712.597 519.743 712.225 520 711.809 520H709H701L696.605 519.512C696.535 519.504 696.466 519.489 696.399 519.466L692 518L684.5 515L674 509L654.995 496.33C654.69 496.127 654.521 495.773 654.554 495.407L655 490.5V485.571C655 485.524 654.997 485.476 654.99 485.43L654.5 482L653.576 477.379C653.527 477.135 653.571 476.882 653.699 476.668L656.31 472.317C656.432 472.113 656.624 471.959 656.851 471.883Z" fill="black" stroke="black"/>
<path d="M438.435 369.732L391.822 347.627C391.186 347.325 390.446 347.757 390.396 348.459L390.051 353.281C390.021 353.71 390.268 354.111 390.666 354.276L436.383 373.244C436.757 373.399 437 373.764 437 374.168V375.341C437 375.741 437.238 376.102 437.606 376.26L461.074 386.317C461.344 386.433 461.652 386.424 461.915 386.293L463.066 385.717C463.34 385.58 463.662 385.576 463.939 385.707L653.217 474.867C653.401 474.954 653.607 474.982 653.808 474.949L655.664 474.639C656.147 474.559 656.5 474.142 656.5 473.653V472.633C656.5 472.247 656.277 471.895 655.927 471.729L465.573 381.771C465.223 381.605 465 381.253 465 380.867V379.636C465 379.248 464.775 378.895 464.424 378.73L442.063 368.264C441.718 368.102 441.312 368.151 441.014 368.388L439.488 369.609C439.19 369.848 438.781 369.896 438.435 369.732Z" fill="black" stroke="black"/>
</svg>
