<svg width="720" height="1149" viewBox="0 0 720 1149" fill="none" xmlns="http://www.w3.org/2000/svg">
<path d="M276.23 795.684L336.136 843.708C336.367 843.893 336.504 844.171 336.511 844.466L336.943 863.507C336.964 864.408 335.874 864.874 335.236 864.236L272.196 801.196C272.068 801.068 271.977 800.907 271.933 800.731L271.042 797.168C271.014 797.057 270.967 796.951 270.904 796.856L270.292 795.938C270.109 795.664 270.073 795.317 270.195 795.012L271 793L271.928 789.751C271.975 789.587 272.064 789.437 272.185 789.316L332.796 729.191C333.427 728.565 334.5 729.012 334.5 729.901V731.083C334.5 731.35 334.393 731.606 334.204 731.793L274.941 790.563C274.671 790.831 274.576 791.228 274.696 791.589L275.907 795.22C275.968 795.403 276.08 795.564 276.23 795.684Z" fill="black" stroke="black"/>
<path d="M65.1491 897.883L64.3095 897.603C64.1084 897.536 63.8912 897.535 63.6892 897.599L17.0738 912.476C17.0247 912.492 16.9768 912.512 16.9307 912.535L13 914.5L10.5 916L3.5 921.5L1.56771 923.046C1.22923 923.317 1.10375 923.775 1.25693 924.18L9.25573 945.353C9.40273 945.743 9.77525 946 10.1912 946H13H21L25.3947 945.512C25.4647 945.504 25.5337 945.489 25.6005 945.466L30 944L37.5 941L48 935L67.0049 922.33C67.31 922.127 67.4793 921.773 67.4461 921.407L67 916.5V911.571C67 911.524 67.0034 911.476 67.01 911.43L67.5 908L68.4242 903.379C68.473 903.135 68.4291 902.882 68.3011 902.668L65.6903 898.317C65.5675 898.113 65.3755 897.959 65.1491 897.883Z" fill="black" stroke="black"/>
<path d="M283.565 795.732L330.178 773.627C330.814 773.325 331.554 773.757 331.604 774.459L331.949 779.281C331.979 779.71 331.732 780.111 331.334 780.276L285.617 799.244C285.243 799.399 285 799.764 285 800.168V801.341C285 801.741 284.762 802.102 284.394 802.26L260.926 812.317C260.656 812.433 260.348 812.424 260.085 812.293L258.934 811.717C258.66 811.58 258.338 811.576 258.061 811.707L68.7825 900.867C68.5985 900.954 68.3925 900.982 68.192 900.949L66.3356 900.639C65.8534 900.559 65.5 900.142 65.5 899.653V898.633C65.5 898.247 65.723 897.895 66.0727 897.729L256.427 807.771C256.777 807.605 257 807.253 257 806.867V805.636C257 805.248 257.225 804.895 257.576 804.73L279.937 794.264C280.282 794.102 280.688 794.151 280.986 794.388L282.512 795.609C282.81 795.848 283.219 795.896 283.565 795.732Z" fill="black" stroke="black"/>
<path d="M444.77 653.684L384.864 701.708C384.633 701.893 384.496 702.171 384.489 702.466L384.057 721.507C384.036 722.408 385.126 722.874 385.764 722.236L448.804 659.196C448.932 659.068 449.023 658.907 449.067 658.731L449.958 655.168C449.986 655.057 450.033 654.951 450.096 654.856L450.708 653.938C450.891 653.664 450.927 653.317 450.805 653.012L450 651L449.072 647.751C449.025 647.587 448.936 647.437 448.815 647.316L388.204 587.191C387.573 586.565 386.5 587.012 386.5 587.901V589.083C386.5 589.35 386.607 589.606 386.796 589.793L446.059 648.563C446.329 648.831 446.424 649.228 446.304 649.589L445.093 653.22C445.032 653.403 444.92 653.564 444.77 653.684Z" fill="black" stroke="black"/>
<path d="M654.851 755.883L655.691 755.603C655.892 755.536 656.109 755.535 656.311 755.599L702.926 770.476C702.975 770.492 703.023 770.512 703.069 770.535L707 772.5L709.5 774L716.5 779.5L718.432 781.046C718.771 781.317 718.896 781.775 718.743 782.18L710.744 803.353C710.597 803.743 710.225 804 709.809 804H707H699L694.605 803.512C694.535 803.504 694.466 803.489 694.399 803.466L690 802L682.5 799L672 793L652.995 780.33C652.69 780.127 652.521 779.773 652.554 779.407L653 774.5V769.571C653 769.524 652.997 769.476 652.99 769.43L652.5 766L651.576 761.379C651.527 761.135 651.571 760.882 651.699 760.668L654.31 756.317C654.432 756.113 654.624 755.959 654.851 755.883Z" fill="black" stroke="black"/>
<path d="M436.435 653.732L389.822 631.627C389.186 631.325 388.446 631.757 388.396 632.459L388.051 637.281C388.021 637.71 388.268 638.111 388.666 638.276L434.383 657.244C434.757 657.399 435 657.764 435 658.168V659.341C435 659.741 435.238 660.102 435.606 660.26L459.074 670.317C459.344 670.433 459.652 670.424 459.915 670.293L461.066 669.717C461.34 669.58 461.662 669.576 461.939 669.707L651.217 758.867C651.401 758.954 651.607 758.982 651.808 758.949L653.664 758.639C654.147 758.559 654.5 758.142 654.5 757.653V756.633C654.5 756.247 654.277 755.895 653.927 755.729L463.573 665.771C463.223 665.605 463 665.253 463 664.867V663.636C463 663.248 462.775 662.895 462.424 662.73L440.063 652.264C439.718 652.102 439.312 652.151 439.014 652.388L437.488 653.609C437.19 653.848 436.781 653.896 436.435 653.732Z" fill="black" stroke="black"/>
<path d="M273.73 513.184L333.636 561.208C333.867 561.393 334.004 561.671 334.011 561.966L334.443 581.007C334.464 581.908 333.374 582.374 332.736 581.736L269.696 518.696C269.568 518.568 269.477 518.407 269.433 518.231L268.542 514.668C268.514 514.557 268.467 514.451 268.404 514.356L267.792 513.438C267.609 513.164 267.573 512.817 267.695 512.512L268.5 510.5L269.428 507.251C269.475 507.087 269.564 506.937 269.685 506.816L330.296 446.691C330.927 446.065 332 446.512 332 447.401V448.583C332 448.85 331.893 449.106 331.704 449.293L272.441 508.063C272.171 508.331 272.076 508.728 272.196 509.089L273.407 512.72C273.468 512.903 273.58 513.064 273.73 513.184Z" fill="black" stroke="black"/>
<path d="M65.1491 614.383L64.3095 614.103C64.1084 614.036 63.8912 614.035 63.6892 614.099L17.0738 628.976C17.0247 628.992 16.9768 629.012 16.9307 629.035L13 631L10.5 632.5L3.5 638L1.56771 639.546C1.22923 639.817 1.10375 640.275 1.25693 640.68L9.25573 661.853C9.40273 662.243 9.77525 662.5 10.1912 662.5H13H21L25.3947 662.012C25.4647 662.004 25.5337 661.989 25.6005 661.966L30 660.5L37.5 657.5L48 651.5L67.0049 638.83C67.31 638.627 67.4793 638.273 67.4461 637.907L67 633V628.071C67 628.024 67.0034 627.976 67.01 627.93L67.5 624.5L68.4242 619.879C68.473 619.635 68.4291 619.382 68.3011 619.168L65.6903 614.817C65.5675 614.613 65.3755 614.459 65.1491 614.383Z" fill="black" stroke="black"/>
<path d="M283.565 512.232L330.178 490.127C330.814 489.825 331.554 490.257 331.604 490.959L331.949 495.781C331.979 496.21 331.732 496.611 331.334 496.776L285.617 515.744C285.243 515.899 285 516.264 285 516.668V517.841C285 518.241 284.762 518.602 284.394 518.76L260.926 528.817C260.656 528.933 260.348 528.924 260.085 528.793L258.934 528.217C258.66 528.08 258.338 528.076 258.061 528.207L68.7825 617.367C68.5985 617.454 68.3925 617.482 68.192 617.449L66.3356 617.139C65.8534 617.059 65.5 616.642 65.5 616.153V615.133C65.5 614.747 65.723 614.395 66.0727 614.229L256.427 524.271C256.777 524.105 257 523.753 257 523.367V522.136C257 521.748 257.225 521.395 257.576 521.23L279.937 510.764C280.282 510.602 280.688 510.651 280.986 510.888L282.512 512.109C282.81 512.348 283.219 512.396 283.565 512.232Z" fill="black" stroke="black"/>
<path d="M441.27 371.184L381.364 419.208C381.133 419.393 380.996 419.671 380.989 419.966L380.557 439.007C380.536 439.908 381.626 440.374 382.264 439.736L445.304 376.696C445.432 376.568 445.523 376.407 445.567 376.231L446.458 372.668C446.486 372.557 446.533 372.451 446.596 372.356L447.208 371.438C447.391 371.164 447.427 370.817 447.305 370.512L446.5 368.5L445.572 365.251C445.525 365.087 445.436 364.937 445.315 364.816L384.704 304.691C384.073 304.065 383 304.512 383 305.401V306.583C383 306.85 383.107 307.106 383.296 307.293L442.559 366.063C442.829 366.331 442.924 366.728 442.804 367.089L441.593 370.72C441.532 370.903 441.42 371.064 441.27 371.184Z" fill="black" stroke="black"/>
<path d="M653.851 472.383L654.691 472.103C654.892 472.036 655.109 472.035 655.311 472.099L701.926 486.976C701.975 486.992 702.023 487.012 702.069 487.035L706 489L708.5 490.5L715.5 496L717.432 497.546C717.771 497.817 717.896 498.275 717.743 498.68L709.744 519.853C709.597 520.243 709.225 520.5 708.809 520.5H706H698L693.605 520.012C693.535 520.004 693.466 519.989 693.399 519.966L689 518.5L681.5 515.5L671 509.5L651.995 496.83C651.69 496.627 651.521 496.273 651.554 495.907L652 491V486.071C652 486.024 651.997 485.976 651.99 485.93L651.5 482.5L650.576 477.879C650.527 477.635 650.571 477.382 650.699 477.168L653.31 472.817C653.432 472.613 653.624 472.459 653.851 472.383Z" fill="black" stroke="black"/>
<path d="M435.435 370.232L388.822 348.127C388.186 347.825 387.446 348.257 387.396 348.959L387.051 353.781C387.021 354.21 387.268 354.611 387.666 354.776L433.383 373.744C433.757 373.899 434 374.264 434 374.668V375.841C434 376.241 434.238 376.602 434.606 376.76L458.074 386.817C458.344 386.933 458.652 386.924 458.915 386.793L460.066 386.217C460.34 386.08 460.662 386.076 460.939 386.207L650.217 475.367C650.401 475.454 650.607 475.482 650.808 475.449L652.664 475.139C653.147 475.059 653.5 474.642 653.5 474.153V473.133C653.5 472.747 653.277 472.395 652.927 472.229L462.573 382.271C462.223 382.105 462 381.753 462 381.367V380.136C462 379.748 461.775 379.395 461.424 379.23L439.063 368.764C438.718 368.602 438.312 368.651 438.014 368.888L436.488 370.109C436.19 370.348 435.781 370.396 435.435 370.232Z" fill="black" stroke="black"/>
<g clip-path="url(#clip0_22_74)">
<path d="M382.994 -318.58L361.933 -589.01C361.838 -590.24 360.048 -590.25 359.94 -589.03L336.007 -318.58C336.002 -318.53 335.994 -318.48 335.982 -318.43L329.525 -292.1C329.508 -292.03 329.499 -291.97 329.496 -291.9L322.5 -88.5002V108.5L326.5 370V641L330.998 897.411C330.999 897.47 331.006 897.529 331.017 897.587L338 933L358.505 1145.68C358.621 1146.88 360.379 1146.88 360.495 1145.68L381 933L388.48 897.593C388.493 897.531 388.501 897.468 388.502 897.405L389.748 833.5L390.157 812.5L393.5 641L397 370V108.5L395 -88.5002L389.503 -291.89C389.501 -291.96 389.491 -292.03 389.474 -292.1L383.019 -318.42C383.006 -318.47 382.998 -318.53 382.994 -318.58Z" fill="black" stroke="black"/>
</g>
<g clip-path="url(#clip1_22_74)">
<path d="M382.316 275.419L362.105 4.98536C362.014 3.76204 360.296 3.75257 360.193 4.97482L337.224 275.424C337.22 275.475 337.212 275.525 337.2 275.574L331.003 301.9C330.988 301.966 330.979 302.035 330.976 302.103L324.262 505.5V702.5L328.101 964V1235L332.418 1491.41C332.419 1491.47 332.425 1491.53 332.436 1491.59L339.137 1527L358.815 1739.68C358.926 1740.88 360.614 1740.88 360.725 1739.68L380.403 1527L387.582 1491.59C387.595 1491.53 387.601 1491.47 387.603 1491.41L388.798 1427.5L389.191 1406.5L392.399 1235L395.758 964V702.5L393.839 505.5L388.563 302.107C388.561 302.036 388.552 301.965 388.536 301.896L382.341 275.579C382.329 275.526 382.321 275.473 382.316 275.419Z" fill="black" stroke="black"/>
</g>
<path d="M330.5 303V897H389V303H330.5Z" fill="black"/>
<defs>
<clipPath id="clip0_22_74">
<rect x="328" y="897" width="63" height="252" rx="1.5" fill="white"/>
</clipPath>
<clipPath id="clip1_22_74">
<rect x="330.5" width="59.5" height="303" rx="1.5" fill="white"/>
</clipPath>
</defs>
</svg>
