<svg width="719" height="866" viewBox="0 0 719 866" fill="none" xmlns="http://www.w3.org/2000/svg">
<path d="M273.73 513.184L333.636 561.208C333.867 561.393 334.004 561.671 334.011 561.966L334.443 581.007C334.464 581.908 333.374 582.374 332.736 581.736L269.696 518.696C269.568 518.568 269.477 518.407 269.433 518.231L268.542 514.668C268.514 514.557 268.467 514.451 268.404 514.356L267.792 513.438C267.609 513.164 267.573 512.817 267.695 512.512L268.5 510.5L269.428 507.251C269.475 507.087 269.564 506.937 269.685 506.816L330.296 446.691C330.927 446.065 332 446.512 332 447.401V448.583C332 448.85 331.893 449.106 331.704 449.293L272.441 508.063C272.171 508.331 272.076 508.728 272.196 509.089L273.407 512.72C273.468 512.903 273.58 513.064 273.73 513.184Z" fill="black" stroke="black"/>
<path d="M65.1491 614.383L64.3095 614.103C64.1084 614.036 63.8912 614.035 63.6892 614.099L17.0738 628.976C17.0247 628.992 16.9768 629.012 16.9307 629.035L13 631L10.5 632.5L3.5 638L1.56771 639.546C1.22923 639.817 1.10375 640.275 1.25693 640.68L9.25573 661.853C9.40273 662.243 9.77525 662.5 10.1912 662.5H13H21L25.3947 662.012C25.4647 662.004 25.5337 661.989 25.6005 661.966L30 660.5L37.5 657.5L48 651.5L67.0049 638.83C67.31 638.627 67.4793 638.273 67.4461 637.907L67 633V628.071C67 628.024 67.0034 627.976 67.01 627.93L67.5 624.5L68.4242 619.879C68.473 619.635 68.4291 619.382 68.3011 619.168L65.6903 614.817C65.5675 614.613 65.3755 614.459 65.1491 614.383Z" fill="black" stroke="black"/>
<path d="M283.565 512.232L330.178 490.127C330.814 489.825 331.554 490.257 331.604 490.959L331.949 495.781C331.979 496.21 331.732 496.611 331.334 496.776L285.617 515.744C285.243 515.899 285 516.264 285 516.668V517.841C285 518.241 284.762 518.602 284.394 518.76L260.926 528.817C260.656 528.933 260.348 528.924 260.085 528.793L258.934 528.217C258.66 528.08 258.338 528.076 258.061 528.207L68.7825 617.367C68.5985 617.454 68.3925 617.482 68.192 617.449L66.3356 617.139C65.8534 617.059 65.5 616.642 65.5 616.153V615.133C65.5 614.747 65.723 614.395 66.0727 614.229L256.427 524.271C256.777 524.105 257 523.753 257 523.367V522.136C257 521.748 257.225 521.395 257.576 521.23L279.937 510.764C280.282 510.602 280.688 510.651 280.986 510.888L282.512 512.109C282.81 512.348 283.219 512.396 283.565 512.232Z" fill="black" stroke="black"/>
<path d="M441.27 371.184L381.364 419.208C381.133 419.393 380.996 419.671 380.989 419.966L380.557 439.007C380.536 439.908 381.626 440.374 382.264 439.736L445.304 376.696C445.432 376.568 445.523 376.407 445.567 376.231L446.458 372.668C446.486 372.557 446.533 372.451 446.596 372.356L447.208 371.438C447.391 371.164 447.427 370.817 447.305 370.512L446.5 368.5L445.572 365.251C445.525 365.087 445.436 364.937 445.315 364.816L384.704 304.691C384.073 304.065 383 304.512 383 305.401V306.583C383 306.85 383.107 307.106 383.296 307.293L442.559 366.063C442.829 366.331 442.924 366.728 442.804 367.089L441.593 370.72C441.532 370.903 441.42 371.064 441.27 371.184Z" fill="black" stroke="black"/>
<path d="M653.851 472.383L654.691 472.103C654.892 472.036 655.109 472.035 655.311 472.099L701.926 486.976C701.975 486.992 702.023 487.012 702.069 487.035L706 489L708.5 490.5L715.5 496L717.432 497.546C717.771 497.817 717.896 498.275 717.743 498.68L709.744 519.853C709.597 520.243 709.225 520.5 708.809 520.5H706H698L693.605 520.012C693.535 520.004 693.466 519.989 693.399 519.966L689 518.5L681.5 515.5L671 509.5L651.995 496.83C651.69 496.627 651.521 496.273 651.554 495.907L652 491V486.071C652 486.024 651.997 485.976 651.99 485.93L651.5 482.5L650.576 477.879C650.527 477.635 650.571 477.382 650.699 477.168L653.31 472.817C653.432 472.613 653.624 472.459 653.851 472.383Z" fill="black" stroke="black"/>
<path d="M435.435 370.232L388.822 348.127C388.186 347.825 387.446 348.257 387.396 348.959L387.051 353.781C387.021 354.21 387.268 354.611 387.666 354.776L433.383 373.744C433.757 373.899 434 374.264 434 374.668V375.841C434 376.241 434.238 376.602 434.606 376.76L458.074 386.817C458.344 386.933 458.652 386.924 458.915 386.793L460.066 386.217C460.34 386.08 460.662 386.076 460.939 386.207L650.217 475.367C650.401 475.454 650.607 475.482 650.808 475.449L652.664 475.139C653.147 475.059 653.5 474.642 653.5 474.153V473.133C653.5 472.747 653.277 472.395 652.927 472.229L462.573 382.271C462.223 382.105 462 381.753 462 381.367V380.136C462 379.748 461.775 379.395 461.424 379.23L439.063 368.764C438.718 368.602 438.312 368.651 438.014 368.888L436.488 370.109C436.19 370.348 435.781 370.396 435.435 370.232Z" fill="black" stroke="black"/>
<g clip-path="url(#clip0_20_116)">
<path d="M383.057 -601.58L362.164 -872.01C362.07 -873.24 360.294 -873.25 360.187 -872.03L336.443 -601.58C336.439 -601.53 336.43 -601.48 336.418 -601.43L330.013 -575.1C329.996 -575.03 329.987 -574.97 329.985 -574.9L323.044 -371.5V-174.5L327.012 86.9998V358L331.475 614.411C331.476 614.47 331.482 614.529 331.493 614.587L338.421 650L358.763 862.676C358.878 863.881 360.622 863.881 360.738 862.676L381.079 650L388.5 614.593C388.513 614.531 388.52 614.468 388.522 614.405L389.758 550.5L390.164 529.5L393.48 358L396.952 86.9998V-174.5L394.968 -371.5L389.515 -574.89C389.513 -574.96 389.503 -575.03 389.487 -575.1L383.083 -601.42C383.07 -601.47 383.061 -601.53 383.057 -601.58Z" fill="black" stroke="black"/>
</g>
<g clip-path="url(#clip1_20_116)">
<path d="M382.381 275.419L362.34 4.98536C362.249 3.76204 360.546 3.75257 360.443 4.97482L337.668 275.424C337.663 275.475 337.656 275.525 337.644 275.574L331.499 301.9C331.484 301.966 331.475 302.035 331.472 302.103L324.815 505.5V702.5L328.621 964V1235L332.902 1491.41C332.903 1491.47 332.909 1491.53 332.92 1491.59L339.565 1527L359.077 1739.68C359.188 1740.88 360.861 1740.88 360.971 1739.68L380.484 1527L387.602 1491.59C387.615 1491.53 387.622 1491.47 387.623 1491.41L388.808 1427.5L389.198 1406.5L392.379 1235L395.71 964V702.5L393.806 505.5L388.575 302.107C388.574 302.036 388.564 301.965 388.548 301.896L382.406 275.579C382.393 275.526 382.385 275.473 382.381 275.419Z" fill="black" stroke="black"/>
</g>
<path d="M331 303V614H389V303H331Z" fill="black"/>
<defs>
<clipPath id="clip0_20_116">
<rect width="62.5" height="252" fill="white" transform="translate(328.5 614)"/>
</clipPath>
<clipPath id="clip1_20_116">
<rect width="59" height="303" fill="white" transform="translate(331)"/>
</clipPath>
</defs>
</svg>
