<svg width="447" height="1149" viewBox="0 0 447 1149" fill="none" xmlns="http://www.w3.org/2000/svg">
<g clip-path="url(#clip0_33_107)">
<path d="M245.994 -318.58L224.933 -589.01C224.838 -590.24 223.048 -590.25 222.94 -589.03L199.007 -318.58C199.002 -318.53 198.994 -318.48 198.982 -318.43L192.525 -292.1C192.508 -292.03 192.499 -291.97 192.496 -291.9L185.5 -88.5002V108.5L189.5 370V641L193.998 897.411C193.999 897.47 194.006 897.529 194.017 897.587L201 933L221.505 1145.68C221.621 1146.88 223.379 1146.88 223.495 1145.68L244 933L251.48 897.593C251.493 897.531 251.501 897.468 251.502 897.405L252.748 833.5L253.157 812.5L256.5 641L260 370V108.5L258 -88.5002L252.503 -291.89C252.501 -291.96 252.491 -292.03 252.474 -292.1L246.019 -318.42C246.006 -318.47 245.998 -318.53 245.994 -318.58Z" fill="black" stroke="black"/>
</g>
<g clip-path="url(#clip1_33_107)">
<path d="M245.316 275.419L225.105 4.98536C225.014 3.76204 223.296 3.75257 223.193 4.97482L200.224 275.424C200.22 275.475 200.212 275.525 200.2 275.574L194.003 301.9C193.988 301.966 193.979 302.035 193.976 302.103L187.262 505.5V702.5L191.101 964V1235L195.418 1491.41C195.419 1491.47 195.425 1491.53 195.436 1491.59L202.137 1527L221.815 1739.68C221.926 1740.88 223.614 1740.88 223.725 1739.68L243.403 1527L250.582 1491.59C250.595 1491.53 250.601 1491.47 250.603 1491.41L251.798 1427.5L252.191 1406.5L255.399 1235L258.758 964V702.5L256.839 505.5L251.563 302.107C251.561 302.036 251.552 301.965 251.536 301.896L245.341 275.579C245.329 275.526 245.321 275.473 245.316 275.419Z" fill="black" stroke="black"/>
</g>
<path d="M193.5 303V897H252V303H193.5Z" fill="black"/>
<path d="M290 751.5L250 761.5V770.5L295.5 755.5V751.5L250 711V716L290 751.5Z" fill="black" stroke="black"/>
<path d="M153.5 751.5L193.5 761.5V770.5L148 755.5V751.5L193.5 711V716L153.5 751.5Z" fill="black" stroke="black"/>
<path d="M38 897.402L34.3 896L32.45 897.402L31.9875 897.87L31.0625 898.337L30.1375 898.804L26.9 900.674L23.6625 902.543L20.425 904.413L17.1875 906.75L11.6375 911.424L7.9375 914.696L5.625 917.033L4.7 918.435L3.3125 920.304L2.3875 922.174L1 924.511L12.5625 939L15.3375 938.065L19.9625 936.663L23.2 935.261L25.5125 933.859L27.825 931.989L28.75 931.054L29.675 930.12L31.0625 928.25L31.9875 926.848L35.6875 921.707L36.15 920.772L36.6125 919.837L37.075 918.902V918.435L36.6125 917.033L36.15 914.696L35.6875 912.359L35.225 909.554V907.217V904.413L35.6875 902.076L36.15 899.739L38 897.402Z" fill="black" stroke="black"/>
<path d="M34 896L194 700V707.5L37.5 897.5L34 896Z" fill="black" stroke="black"/>
<path d="M408.5 897.402L412.2 896L414.05 897.402L414.512 897.87L415.438 898.337L416.362 898.804L419.6 900.674L422.837 902.543L426.075 904.413L429.312 906.75L434.863 911.424L438.562 914.696L440.875 917.033L441.8 918.435L443.188 920.304L444.112 922.174L445.5 924.511L433.938 939L431.162 938.065L426.538 936.663L423.3 935.261L420.987 933.859L418.675 931.989L417.75 931.054L416.825 930.12L415.438 928.25L414.512 926.848L410.812 921.707L410.35 920.772L409.888 919.837L409.425 918.902V918.435L409.888 917.033L410.35 914.696L410.812 912.359L411.275 909.554V907.217V904.413L410.812 902.076L410.35 899.739L408.5 897.402Z" fill="black" stroke="black"/>
<path d="M412 896L252 700V707.5L408.5 897.5L412 896Z" fill="black" stroke="black"/>
<path d="M291 610.5L251 620.5V629.5L296.5 614.5V610.5L251 570V575L291 610.5Z" fill="black" stroke="black"/>
<path d="M154.5 610.5L194.5 620.5V629.5L149 614.5V610.5L194.5 570V575L154.5 610.5Z" fill="black" stroke="black"/>
<path d="M38 754.402L34.3 753L32.45 754.402L31.9875 754.87L31.0625 755.337L30.1375 755.804L26.9 757.674L23.6625 759.543L20.425 761.413L17.1875 763.75L11.6375 768.424L7.9375 771.696L5.625 774.033L4.7 775.435L3.3125 777.304L2.3875 779.174L1 781.511L12.5625 796L15.3375 795.065L19.9625 793.663L23.2 792.261L25.5125 790.859L27.825 788.989L28.75 788.054L29.675 787.12L31.0625 785.25L31.9875 783.848L35.6875 778.707L36.15 777.772L36.6125 776.837L37.075 775.902V775.435L36.6125 774.033L36.15 771.696L35.6875 769.359L35.225 766.554V764.217V761.413L35.6875 759.076L36.15 756.739L38 754.402Z" fill="black" stroke="black"/>
<path d="M34 753L194 557V564.5L37.5 754.5L34 753Z" fill="black" stroke="black"/>
<path d="M408.5 754.402L412.2 753L414.05 754.402L414.512 754.87L415.438 755.337L416.362 755.804L419.6 757.674L422.837 759.543L426.075 761.413L429.312 763.75L434.863 768.424L438.562 771.696L440.875 774.033L441.8 775.435L443.188 777.304L444.112 779.174L445.5 781.511L433.938 796L431.162 795.065L426.538 793.663L423.3 792.261L420.987 790.859L418.675 788.989L417.75 788.054L416.825 787.12L415.438 785.25L414.512 783.848L410.812 778.707L410.35 777.772L409.888 776.837L409.425 775.902V775.435L409.888 774.033L410.35 771.696L410.812 769.359L411.275 766.554V764.217V761.413L410.812 759.076L410.35 756.739L408.5 754.402Z" fill="black" stroke="black"/>
<path d="M412 753L252 557V564.5L408.5 754.5L412 753Z" fill="black" stroke="black"/>
<path d="M289 487.5L249 497.5V506.5L294.5 491.5V487.5L249 447V452L289 487.5Z" fill="black" stroke="black"/>
<path d="M153.5 487.5L193.5 497.5V506.5L148 491.5V487.5L193.5 447V452L153.5 487.5Z" fill="black" stroke="black"/>
<path d="M38 633.402L34.3 632L32.45 633.402L31.9875 633.87L31.0625 634.337L30.1375 634.804L26.9 636.674L23.6625 638.543L20.425 640.413L17.1875 642.75L11.6375 647.424L7.9375 650.696L5.625 653.033L4.7 654.435L3.3125 656.304L2.3875 658.174L1 660.511L12.5625 675L15.3375 674.065L19.9625 672.663L23.2 671.261L25.5125 669.859L27.825 667.989L28.75 667.054L29.675 666.12L31.0625 664.25L31.9875 662.848L35.6875 657.707L36.15 656.772L36.6125 655.837L37.075 654.902V654.435L36.6125 653.033L36.15 650.696L35.6875 648.359L35.225 645.554V643.217V640.413L35.6875 638.076L36.15 635.739L38 633.402Z" fill="black" stroke="black"/>
<path d="M34 632L194 436V443.5L37.5 633.5L34 632Z" fill="black" stroke="black"/>
<path d="M408.5 633.402L412.2 632L414.05 633.402L414.512 633.87L415.438 634.337L416.362 634.804L419.6 636.674L422.837 638.543L426.075 640.413L429.312 642.75L434.863 647.424L438.562 650.696L440.875 653.033L441.8 654.435L443.188 656.304L444.112 658.174L445.5 660.511L433.938 675L431.162 674.065L426.538 672.663L423.3 671.261L420.987 669.859L418.675 667.989L417.75 667.054L416.825 666.12L415.438 664.25L414.512 662.848L410.812 657.707L410.35 656.772L409.888 655.837L409.425 654.902V654.435L409.888 653.033L410.35 650.696L410.812 648.359L411.275 645.554V643.217V640.413L410.812 638.076L410.35 635.739L408.5 633.402Z" fill="black" stroke="black"/>
<path d="M412 632L252 436V443.5L408.5 633.5L412 632Z" fill="black" stroke="black"/>
<path d="M290 349.5L250 359.5V368.5L295.5 353.5V349.5L250 309V314L290 349.5Z" fill="black" stroke="black"/>
<path d="M153.5 349.5L193.5 359.5V368.5L148 353.5V349.5L193.5 309V314L153.5 349.5Z" fill="black" stroke="black"/>
<path d="M38 497.402L34.3 496L32.45 497.402L31.9875 497.87L31.0625 498.337L30.1375 498.804L26.9 500.674L23.6625 502.543L20.425 504.413L17.1875 506.75L11.6375 511.424L7.9375 514.696L5.625 517.033L4.7 518.435L3.3125 520.304L2.3875 522.174L1 524.511L12.5625 539L15.3375 538.065L19.9625 536.663L23.2 535.261L25.5125 533.859L27.825 531.989L28.75 531.054L29.675 530.12L31.0625 528.25L31.9875 526.848L35.6875 521.707L36.15 520.772L36.6125 519.837L37.075 518.902V518.435L36.6125 517.033L36.15 514.696L35.6875 512.359L35.225 509.554V507.217V504.413L35.6875 502.076L36.15 499.739L38 497.402Z" fill="black" stroke="black"/>
<path d="M34 496L194 300V307.5L37.5 497.5L34 496Z" fill="black" stroke="black"/>
<path d="M408.5 497.402L412.2 496L414.05 497.402L414.512 497.87L415.438 498.337L416.362 498.804L419.6 500.674L422.837 502.543L426.075 504.413L429.312 506.75L434.863 511.424L438.562 514.696L440.875 517.033L441.8 518.435L443.188 520.304L444.112 522.174L445.5 524.511L433.938 539L431.162 538.065L426.538 536.663L423.3 535.261L420.987 533.859L418.675 531.989L417.75 531.054L416.825 530.12L415.438 528.25L414.512 526.848L410.812 521.707L410.35 520.772L409.888 519.837L409.425 518.902V518.435L409.888 517.033L410.35 514.696L410.812 512.359L411.275 509.554V507.217V504.413L410.812 502.076L410.35 499.739L408.5 497.402Z" fill="black" stroke="black"/>
<path d="M412 496L252 300V307.5L408.5 497.5L412 496Z" fill="black" stroke="black"/>
<defs>
<clipPath id="clip0_33_107">
<rect x="191" y="897" width="63" height="252" rx="1.5" fill="white"/>
</clipPath>
<clipPath id="clip1_33_107">
<rect x="193.5" width="59.5" height="303" rx="1.5" fill="white"/>
</clipPath>
</defs>
</svg>
