<svg width="447" height="711" viewBox="0 0 447 711" fill="none" xmlns="http://www.w3.org/2000/svg">
<g clip-path="url(#clip0_33_188)">
<path d="M245.557 -756.58L224.664 -1027.01C224.569 -1028.24 222.794 -1028.25 222.687 -1027.03L198.943 -756.58C198.938 -756.53 198.93 -756.48 198.918 -756.43L192.512 -730.1C192.496 -730.03 192.487 -729.97 192.484 -729.9L185.543 -526.5V-329.5L189.512 -68.0002V203L193.974 459.411C193.975 459.47 193.982 459.529 193.993 459.587L200.92 495L221.262 707.676C221.378 708.881 223.122 708.881 223.237 707.676L243.579 495L251 459.593C251.013 459.531 251.02 459.468 251.021 459.405L252.257 395.5L252.663 374.5L255.98 203L259.452 -68.0002V-329.5L257.468 -526.5L252.015 -729.89C252.013 -729.96 252.003 -730.03 251.986 -730.1L245.583 -756.42C245.57 -756.47 245.561 -756.53 245.557 -756.58Z" fill="black" stroke="black"/>
</g>
<g clip-path="url(#clip1_33_188)">
<path d="M244.881 275.419L224.84 4.98536C224.749 3.76204 223.046 3.75257 222.943 4.97482L200.167 275.424C200.163 275.475 200.155 275.525 200.144 275.574L193.999 301.9C193.984 301.966 193.974 302.035 193.972 302.103L187.314 505.5V702.5L191.121 964V1235L195.402 1491.41C195.403 1491.47 195.409 1491.53 195.419 1491.59L202.064 1527L221.577 1739.68C221.687 1740.88 223.361 1740.88 223.471 1739.68L242.984 1527L250.102 1491.59C250.115 1491.53 250.121 1491.47 250.123 1491.41L251.308 1427.5L251.698 1406.5L254.879 1235L258.209 964V702.5L256.306 505.5L251.075 302.107C251.073 302.036 251.064 301.965 251.048 301.896L244.905 275.579C244.893 275.526 244.885 275.473 244.881 275.419Z" fill="black" stroke="black"/>
</g>
<path d="M194 303V459H252V303H194Z" fill="black"/>
<path d="M290 389.5L250 399.5V408.5L295.5 393.5V389.5L250 349V354L290 389.5Z" fill="black" stroke="black"/>
<path d="M153.5 389.5L193.5 399.5V408.5L148 393.5V389.5L193.5 349V354L153.5 389.5Z" fill="black" stroke="black"/>
<path d="M38 537.402L34.3 536L32.45 537.402L31.9875 537.87L31.0625 538.337L30.1375 538.804L26.9 540.674L23.6625 542.543L20.425 544.413L17.1875 546.75L11.6375 551.424L7.9375 554.696L5.625 557.033L4.7 558.435L3.3125 560.304L2.3875 562.174L1 564.511L12.5625 579L15.3375 578.065L19.9625 576.663L23.2 575.261L25.5125 573.859L27.825 571.989L28.75 571.054L29.675 570.12L31.0625 568.25L31.9875 566.848L35.6875 561.707L36.15 560.772L36.6125 559.837L37.075 558.902V558.435L36.6125 557.033L36.15 554.696L35.6875 552.359L35.225 549.554V547.217V544.413L35.6875 542.076L36.15 539.739L38 537.402Z" fill="black" stroke="black"/>
<path d="M34 536L194 340V347.5L37.5 537.5L34 536Z" fill="black" stroke="black"/>
<path d="M408.5 537.402L412.2 536L414.05 537.402L414.512 537.87L415.438 538.337L416.362 538.804L419.6 540.674L422.837 542.543L426.075 544.413L429.312 546.75L434.863 551.424L438.562 554.696L440.875 557.033L441.8 558.435L443.188 560.304L444.112 562.174L445.5 564.511L433.938 579L431.162 578.065L426.538 576.663L423.3 575.261L420.987 573.859L418.675 571.989L417.75 571.054L416.825 570.12L415.438 568.25L414.512 566.848L410.812 561.707L410.35 560.772L409.888 559.837L409.425 558.902V558.435L409.888 557.033L410.35 554.696L410.812 552.359L411.275 549.554V547.217V544.413L410.812 542.076L410.35 539.739L408.5 537.402Z" fill="black" stroke="black"/>
<path d="M412 536L252 340V347.5L408.5 537.5L412 536Z" fill="black" stroke="black"/>
<defs>
<clipPath id="clip0_33_188">
<rect width="62.5" height="252" fill="white" transform="translate(191 459)"/>
</clipPath>
<clipPath id="clip1_33_188">
<rect width="59" height="303" fill="white" transform="translate(193.5)"/>
</clipPath>
</defs>
</svg>
